<svg width="17" height="17" viewBox="0 0 17 17" fill="none" xmlns="http://www.w3.org/2000/svg">
<path fill-rule="evenodd" clip-rule="evenodd" d="M6.69688 0C10.3957 0 13.3938 2.99818 13.3938 6.69697C13.3938 8.28879 12.8354 9.74976 11.9082 10.8996L16.3343 15.3258C16.6125 15.6039 16.6125 16.0562 16.3343 16.3344C16.0562 16.6126 15.6038 16.6126 15.3257 16.3344L10.8995 11.9082C9.74967 12.8355 8.2887 13.3939 6.69688 13.3939C2.99809 13.3939 -8.89511e-05 10.3958 -8.89511e-05 6.69697C-8.89511e-05 2.99818 2.99809 0 6.69688 0V0ZM6.69688 12.3636C9.82179 12.3636 12.3635 9.82188 12.3635 6.69697C12.3635 3.57206 9.82179 1.0303 6.69688 1.0303C3.57197 1.0303 1.03021 3.57206 1.03021 6.69697C1.03021 9.82188 3.57197 12.3636 6.69688 12.3636V12.3636Z" fill="#111111"/>
</svg>
