<svg width="64" height="49" viewBox="0 0 64 49" fill="none" xmlns="http://www.w3.org/2000/svg">
<path fill-rule="evenodd" clip-rule="evenodd" d="M7.5 41L0 9H15L7.5 41Z" fill="#111111"/>
<path d="M21.9721 41H24.8281L24.6601 31.64L23.9401 12.68H23.9641L24.8761 21.992L27.0601 41H30.4441V7.4H27.5881L27.7561 17.432L28.4641 35.516H28.4401L27.5401 26.408L25.3561 7.4H21.9721V41ZM36.7067 41H39.8267L37.4747 7.4H33.8267L31.5707 41H34.3667L34.6067 35.432H36.4667L36.7067 41ZM34.7267 32.552L35.1947 21.8L35.4947 11.024H35.5187L35.8907 21.8L36.3467 32.552H34.7267ZM48.3026 19.964V11.192C48.3026 8.54 47.1386 7.4 44.4386 7.4H40.9346V41H44.4386C47.1386 41 48.3026 39.86 48.3026 37.208V25.244C48.3026 23.756 47.9186 22.952 46.8266 22.652C47.9186 22.328 48.3026 21.488 48.3026 19.964ZM45.3266 20.36C45.3266 20.984 45.0866 21.224 44.5586 21.224H43.9106V10.184H44.4386C45.0626 10.184 45.3266 10.484 45.3266 11.192V20.36ZM45.3266 37.208C45.3266 37.916 45.0626 38.216 44.4386 38.216H43.9106V24.104H44.5586C45.0866 24.104 45.3266 24.344 45.3266 24.968V37.208ZM49.9002 41H54.6522V38.216H52.8762V7.4H49.9002V41ZM60.4161 41H63.5361L61.1841 7.4H57.5361L55.2801 41H58.0761L58.3161 35.432H60.1761L60.4161 41ZM58.4361 32.552L58.9041 21.8L59.2041 11.024H59.2281L59.6001 21.8L60.0561 32.552H58.4361Z" fill="#111111"/>
</svg>
