<svg width="14" height="15" viewBox="0 0 14 15" fill="none" xmlns="http://www.w3.org/2000/svg">
<path fill-rule="evenodd" clip-rule="evenodd" d="M0.0331727 4H3.1111V15H0.0331727V4ZM9.42356 4.001C8.2963 4.001 7.73423 4.519 7.25927 4.87V4H4.16475V15H7.25927V8.075C7.25927 8.075 7.14623 6.696 8.86045 6.696C9.89334 6.696 10.3704 7.263 10.3704 8.075V15H13.6308V8.172C13.6308 4.422 10.5 4.001 9.42356 4.001ZM0 1.5C-8.28127e-09 2.0359 0.296487 2.53109 0.777778 2.79904C1.25907 3.06699 1.85204 3.06699 2.33333 2.79904C2.81462 2.53109 3.11111 2.0359 3.11111 1.5C3.11111 0.964102 2.81462 0.468911 2.33333 0.200962C1.85204 -0.0669873 1.25907 -0.0669873 0.777778 0.200962C0.296487 0.468911 -1.43436e-08 0.964102 0 1.5Z" fill="black"/>
</svg>
