<svg width="17" height="13" viewBox="0 0 17 13" fill="none" xmlns="http://www.w3.org/2000/svg">
<path fill-rule="evenodd" clip-rule="evenodd" d="M16.059 0.24C15.425 0.616 14.722 0.889 13.974 1.037C13.375 0.398 12.522 0 11.578 0C9.76502 0 8.29502 1.47 8.29502 3.282C8.29502 3.539 8.32402 3.79 8.38002 4.03C5.65202 3.893 3.23302 2.586 1.61402 0.6C1.33102 1.084 1.17002 1.648 1.17002 2.25C1.17002 3.389 1.75002 4.394 2.63002 4.982C2.09202 4.964 1.58602 4.816 1.14302 4.57C1.14302 4.584 1.14302 4.597 1.14302 4.611C1.14302 6.201 2.27502 7.528 3.77602 7.83C3.50102 7.905 3.21102 7.945 2.91102 7.945C2.69902 7.945 2.49402 7.924 2.29302 7.886C2.71102 9.19 3.92302 10.139 5.35902 10.166C4.23602 11.046 2.82002 11.571 1.28202 11.571C1.01702 11.571 0.756023 11.555 0.499023 11.525C1.95202 12.456 3.67702 13 5.53102 13C11.569 13 14.871 7.998 14.871 3.66C14.871 3.518 14.868 3.376 14.861 3.235C15.504 2.774 16.061 2.196 16.501 1.538C15.912 1.799 15.28 1.976 14.616 2.055C15.294 1.649 15.814 1.005 16.059 0.24Z" fill="black"/>
</svg>
